<svg width="120" height="120" viewBox="0 0 120 120" fill="none" xmlns="http://www.w3.org/2000/svg">
  <defs>
    <linearGradient id="logoGradient" x1="0%" y1="0%" x2="100%" y2="100%">
      <stop offset="0%" style="stop-color:#3B82F6;stop-opacity:1" />
      <stop offset="50%" style="stop-color:#1D4ED8;stop-opacity:1" />
      <stop offset="100%" style="stop-color:#1E40AF;stop-opacity:1" />
    </linearGradient>
    <filter id="shadow" x="-20%" y="-20%" width="140%" height="140%">
      <feDropShadow dx="0" dy="4" stdDeviation="8" flood-opacity="0.1"/>
    </filter>
  </defs>
  
  <!-- Main document background -->
  <rect x="20" y="15" width="80" height="90" rx="8" ry="8" fill="url(#logoGradient)" filter="url(#shadow)"/>
  
  <!-- Document header lines -->
  <rect x="30" y="28" width="35" height="3" rx="1.5" fill="white" opacity="0.9"/>
  <rect x="30" y="36" width="35" height="3" rx="1.5" fill="white" opacity="0.9"/>
  <rect x="30" y="52" width="20" height="3" rx="1.5" fill="white" opacity="0.7"/>
  
  <!-- Dollar sign circle -->
  <circle cx="60" cy="70" r="18" fill="white" opacity="0.95"/>
  <text x="60" y="78" font-family="Arial, sans-serif" font-size="20" font-weight="bold" text-anchor="middle" fill="url(#logoGradient)">$</text>
  
  <!-- Arrow elements -->
  <g transform="translate(75, 25)">
    <!-- Outgoing arrow -->
    <path d="M5 8 L15 8 L12 5 M15 8 L12 11" stroke="white" stroke-width="2.5" stroke-linecap="round" stroke-linejoin="round" fill="none" opacity="0.9"/>
  </g>
  
  <g transform="translate(75, 40)">
    <!-- Incoming arrow -->
    <path d="M15 8 L5 8 L8 5 M5 8 L8 11" stroke="white" stroke-width="2.5" stroke-linecap="round" stroke-linejoin="round" fill="none" opacity="0.9"/>
  </g>
</svg>